<svg xmlns="http://www.w3.org/2000/svg" width="1400" height="1850" viewBox="-1500 -3600 9000 17600"><text x="2700.0" y="-3050.0" font-family="Helvetica, Arial, sans-serif" font-size="200" fill="#6f8a55" text-anchor="middle" font-weight="700" font-style="normal">▲  ACHTERTUIN</text>
<rect x="200.0" y="-2600.0" width="3200.0" height="2300.0" fill="#e8f0df" stroke="#bcd1a3" stroke-width="20" rx="0" opacity="1"/>
<text x="1700.0" y="-1400.0" font-family="Helvetica, Arial, sans-serif" font-size="170" fill="#6f8a55" text-anchor="middle" font-weight="400" font-style="normal">terras</text>
<rect x="3600.0" y="-1500.0" width="1600.0" height="1200.0" fill="#e7ddc8" stroke="#9a8d72" stroke-width="20" rx="0" opacity="1"/>
<text x="4400.0" y="-800.0" font-family="Helvetica, Arial, sans-serif" font-size="150" fill="#7a6f5a" text-anchor="middle" font-weight="400" font-style="normal">tuinkast</text>
<rect x="0.0" y="0.0" width="5400.0" height="9400.0" fill="#f7f4ee" stroke="none" stroke-width="0" rx="0" opacity="1"/>
<rect x="200.0" y="200.0" width="5000.0" height="4500.0" fill="#f7f4ee" stroke="none" stroke-width="0" rx="0" opacity="1"/>
<rect x="200.0" y="4900.0" width="2400.0" height="2400.0" fill="#eef3f5" stroke="none" stroke-width="0" rx="0" opacity="1"/>
<rect x="200.0" y="7500.0" width="1250.0" height="900.0" fill="#e7f0f4" stroke="none" stroke-width="0" rx="0" opacity="1"/>
<rect x="200.0" y="8500.0" width="1250.0" height="800.0" fill="#eef3f5" stroke="none" stroke-width="0" rx="0" opacity="1"/>
<rect x="4000.0" y="7500.0" width="1200.0" height="1800.0" fill="#eef3f5" stroke="none" stroke-width="0" rx="0" opacity="1"/>
<rect x="0.0" y="0.0" width="5400.0" height="9400.0" fill="none" stroke="#2b2b2b" stroke-width="240" rx="0" opacity="1"/>
<line x1="200.0" y1="4800.0" x2="5200.0" y2="4800.0" stroke="#2b2b2b" stroke-width="100" stroke-linecap="square"/>
<line x1="2600.0" y1="4800.0" x2="2600.0" y2="7300.0" stroke="#2b2b2b" stroke-width="100" stroke-linecap="square"/>
<line x1="3900.0" y1="4800.0" x2="3900.0" y2="9400.0" stroke="#2b2b2b" stroke-width="100" stroke-linecap="square"/>
<line x1="200.0" y1="7400.0" x2="2600.0" y2="7400.0" stroke="#2b2b2b" stroke-width="100" stroke-linecap="square"/>
<line x1="1450.0" y1="7400.0" x2="1450.0" y2="9400.0" stroke="#2b2b2b" stroke-width="100" stroke-linecap="square"/>
<line x1="200.0" y1="8400.0" x2="1450.0" y2="8400.0" stroke="#2b2b2b" stroke-width="100" stroke-linecap="square"/>
<line x1="3900.0" y1="7400.0" x2="5200.0" y2="7400.0" stroke="#2b2b2b" stroke-width="100" stroke-linecap="square"/>
<line x1="0.0" y1="0.0" x2="0.0" y2="9400.0" stroke="#2b2b2b" stroke-width="300" stroke-linecap="square"/>
<line x1="5400.0" y1="0.0" x2="5400.0" y2="9400.0" stroke="#2b2b2b" stroke-width="300" stroke-linecap="square"/>
<line x1="700.0" y1="0.0" x2="3200.0" y2="0.0" stroke="white" stroke-width="270" stroke-linecap="square"/>
<line x1="700.0" y1="0.0" x2="3200.0" y2="0.0" stroke="#7fa9c4" stroke-width="60" stroke-linecap="square"/>
<line x1="700.0" y1="0.0" x2="3200.0" y2="0.0" stroke="white" stroke-width="20" stroke-linecap="square"/>
<line x1="700.0" y1="4900.0" x2="700.0" y2="6900.0" stroke="white" stroke-width="270" stroke-linecap="square"/>
<line x1="700.0" y1="4900.0" x2="700.0" y2="6900.0" stroke="#7fa9c4" stroke-width="60" stroke-linecap="square"/>
<line x1="700.0" y1="4900.0" x2="700.0" y2="6900.0" stroke="white" stroke-width="20" stroke-linecap="square"/>
<line x1="200.0" y1="1200.0" x2="200.0" y2="3600.0" stroke="white" stroke-width="270" stroke-linecap="square"/>
<line x1="200.0" y1="1200.0" x2="200.0" y2="3600.0" stroke="#7fa9c4" stroke-width="60" stroke-linecap="square"/>
<line x1="200.0" y1="1200.0" x2="200.0" y2="3600.0" stroke="white" stroke-width="20" stroke-linecap="square"/>
<line x1="4400.0" y1="0.0" x2="5000.0" y2="0.0" stroke="white" stroke-width="270" stroke-linecap="square"/>
<line x1="4400.0" y1="0.0" x2="5000.0" y2="0.0" stroke="#7fa9c4" stroke-width="60" stroke-linecap="square"/>
<line x1="4400.0" y1="0.0" x2="5000.0" y2="0.0" stroke="white" stroke-width="20" stroke-linecap="square"/>
<line x1="3000.0" y1="9400.0" x2="3000.0" y2="10400.0" stroke="white" stroke-width="140" stroke-linecap="square"/>
<path d="M 3000 9400 A 1000 1000 0 0 0 4000 8400" fill="none" stroke="#9a9a9a" stroke-width="18"/>
<line x1="3000.0" y1="9400.0" x2="4000.0" y2="9400.0" stroke="#9a9a9a" stroke-width="22" stroke-linecap="square"/>
<text x="3450.0" y="9250.0" font-family="Helvetica, Arial, sans-serif" font-size="140" fill="#777" text-anchor="middle" font-weight="400" font-style="normal">entree</text>
<line x1="2600.0" y1="6400.0" x2="2600.0" y2="7200.0" stroke="white" stroke-width="140" stroke-linecap="square"/>
<path d="M 2600 6400 A 800 800 0 0 0 3400 5600" fill="none" stroke="#9a9a9a" stroke-width="18"/>
<line x1="2600.0" y1="6400.0" x2="3400.0" y2="6400.0" stroke="#9a9a9a" stroke-width="22" stroke-linecap="square"/>
<line x1="3050.0" y1="4800.0" x2="3050.0" y2="5650.0" stroke="white" stroke-width="140" stroke-linecap="square"/>
<path d="M 3050 4800 A 850 850 0 0 1 3900 5650" fill="none" stroke="#9a9a9a" stroke-width="18"/>
<line x1="3050.0" y1="4800.0" x2="3900.0" y2="4800.0" stroke="#9a9a9a" stroke-width="22" stroke-linecap="square"/>
<line x1="1450.0" y1="7700.0" x2="2150.0" y2="7700.0" stroke="white" stroke-width="140" stroke-linecap="square"/>
<path d="M 1450 7700 A 700 700 0 0 1 2150 8400" fill="none" stroke="#9a9a9a" stroke-width="18"/>
<line x1="1450.0" y1="7700.0" x2="1450.0" y2="8400.0" stroke="#9a9a9a" stroke-width="22" stroke-linecap="square"/>
<line x1="3900.0" y1="8400.0" x2="4700.0" y2="8400.0" stroke="white" stroke-width="140" stroke-linecap="square"/>
<path d="M 3900 8400 A 800 800 0 0 0 3100 9200" fill="none" stroke="#9a9a9a" stroke-width="18"/>
<line x1="3900.0" y1="8400.0" x2="3900.0" y2="9200.0" stroke="#9a9a9a" stroke-width="22" stroke-linecap="square"/>
<line x1="4400.0" y1="9400.0" x2="4400.0" y2="10200.0" stroke="white" stroke-width="140" stroke-linecap="square"/>
<path d="M 4400 9400 A 800 800 0 0 0 5200 8600" fill="none" stroke="#9a9a9a" stroke-width="18"/>
<line x1="4400.0" y1="9400.0" x2="5200.0" y2="9400.0" stroke="#9a9a9a" stroke-width="22" stroke-linecap="square"/>
<rect x="2750.0" y="5100.0" width="1000.0" height="2300.0" fill="#faf7f0" stroke="#9a9a9a" stroke-width="20" rx="0" opacity="1"/>
<line x1="2750.0" y1="5309.1" x2="3750.0" y2="5309.1" stroke="#b3a892" stroke-width="22" stroke-linecap="square"/>
<line x1="2750.0" y1="5518.2" x2="3750.0" y2="5518.2" stroke="#b3a892" stroke-width="22" stroke-linecap="square"/>
<line x1="2750.0" y1="5727.3" x2="3750.0" y2="5727.3" stroke="#b3a892" stroke-width="22" stroke-linecap="square"/>
<line x1="2750.0" y1="5936.4" x2="3750.0" y2="5936.4" stroke="#b3a892" stroke-width="22" stroke-linecap="square"/>
<line x1="2750.0" y1="6145.5" x2="3750.0" y2="6145.5" stroke="#b3a892" stroke-width="22" stroke-linecap="square"/>
<line x1="2750.0" y1="6354.5" x2="3750.0" y2="6354.5" stroke="#b3a892" stroke-width="22" stroke-linecap="square"/>
<line x1="2750.0" y1="6563.6" x2="3750.0" y2="6563.6" stroke="#b3a892" stroke-width="22" stroke-linecap="square"/>
<line x1="2750.0" y1="6772.7" x2="3750.0" y2="6772.7" stroke="#b3a892" stroke-width="22" stroke-linecap="square"/>
<line x1="2750.0" y1="6981.8" x2="3750.0" y2="6981.8" stroke="#b3a892" stroke-width="22" stroke-linecap="square"/>
<line x1="2750.0" y1="7190.9" x2="3750.0" y2="7190.9" stroke="#b3a892" stroke-width="22" stroke-linecap="square"/>
<line x1="3250.0" y1="7340.0" x2="3250.0" y2="5180.0" stroke="#c0532b" stroke-width="30" stroke-linecap="square"/>
<polygon points="3170.0,5300.0 3330.0,5300.0 3250.0,5160.0" fill="#c0532b" stroke="none" stroke-width="0" stroke-linejoin="round" opacity="1"/>
<text x="3250.0" y="7270.0" font-family="Helvetica, Arial, sans-serif" font-size="130" fill="#6b6256" text-anchor="middle" font-weight="400" font-style="normal"></text>
<text x="2700.0" y="2350.0" font-family="Helvetica, Arial, sans-serif" font-size="260" fill="#1b1b1b" text-anchor="middle" font-weight="700" font-style="normal">woonkamer</text>
<text x="2700.0" y="2700.0" font-family="Helvetica, Arial, sans-serif" font-size="160" fill="#777" text-anchor="middle" font-weight="400" font-style="normal">± 28 m²</text>
<text x="1400.0" y="6100.0" font-family="Helvetica, Arial, sans-serif" font-size="220" fill="#1b1b1b" text-anchor="middle" font-weight="700" font-style="normal">keuken</text>
<text x="3300.0" y="8100.0" font-family="Helvetica, Arial, sans-serif" font-size="200" fill="#1b1b1b" text-anchor="middle" font-weight="700" font-style="normal">hal</text>
<text x="820.0" y="7950.0" font-family="Helvetica, Arial, sans-serif" font-size="150" fill="#1b1b1b" text-anchor="middle" font-weight="400" font-style="normal">toilet</text>
<text x="820.0" y="8950.0" font-family="Helvetica, Arial, sans-serif" font-size="140" fill="#1b1b1b" text-anchor="middle" font-weight="400" font-style="normal">meterk.</text>
<text x="4600.0" y="8500.0" font-family="Helvetica, Arial, sans-serif" font-size="170" fill="#1b1b1b" text-anchor="middle" font-weight="400" font-style="normal">berging</text>
<rect x="200.0" y="9700.0" width="5000.0" height="4200.0" fill="#efece4" stroke="#cbc3b2" stroke-width="20" rx="0" opacity="1" stroke-dasharray="160,120"/>
<rect x="240.0" y="9740.0" width="220.0" height="220.0" fill="#2b2b2b" stroke="none" stroke-width="0" rx="0" opacity="1"/>
<rect x="4940.0" y="9740.0" width="220.0" height="220.0" fill="#2b2b2b" stroke="none" stroke-width="0" rx="0" opacity="1"/>
<rect x="240.0" y="13640.0" width="220.0" height="220.0" fill="#2b2b2b" stroke="none" stroke-width="0" rx="0" opacity="1"/>
<rect x="4940.0" y="13640.0" width="220.0" height="220.0" fill="#2b2b2b" stroke="none" stroke-width="0" rx="0" opacity="1"/>
<rect x="2590.0" y="13640.0" width="220.0" height="220.0" fill="#2b2b2b" stroke="none" stroke-width="0" rx="0" opacity="1"/>
<text x="2700.0" y="11900.0" font-family="Helvetica, Arial, sans-serif" font-size="240" fill="#8a8170" text-anchor="middle" font-weight="700" font-style="normal">carport</text>
<line x1="0.0" y1="-3300.0" x2="5400.0" y2="-3300.0" stroke="#7a6f5f" stroke-width="18" stroke-linecap="square"/>
<text x="2700.0" y="-3360.0" font-family="Helvetica, Arial, sans-serif" font-size="150" fill="#7a6f5f" text-anchor="middle" font-weight="400" font-style="normal">≈ 5,40 m</text>
<line x1="-40.0" y1="-3340.0" x2="40.0" y2="-3260.0" stroke="#7a6f5f" stroke-width="14" stroke-linecap="square"/>
<line x1="5360.0" y1="-3340.0" x2="5440.0" y2="-3260.0" stroke="#7a6f5f" stroke-width="14" stroke-linecap="square"/>
<line x1="6100.0" y1="0.0" x2="6100.0" y2="9400.0" stroke="#7a6f5f" stroke-width="18" stroke-linecap="square"/>
<text x="6100.0" y="4640.0" font-family="Helvetica, Arial, sans-serif" font-size="150" fill="#7a6f5f" text-anchor="middle" font-weight="400" font-style="normal" transform="rotate(-90 6100.0 4640.0)">≈ 9,40 m</text>
<line x1="6060.0" y1="-40.0" x2="6140.0" y2="40.0" stroke="#7a6f5f" stroke-width="14" stroke-linecap="square"/>
<line x1="6060.0" y1="9360.0" x2="6140.0" y2="9440.0" stroke="#7a6f5f" stroke-width="14" stroke-linecap="square"/>
<line x1="6100.0" y1="9700.0" x2="6100.0" y2="13900.0" stroke="#7a6f5f" stroke-width="18" stroke-linecap="square"/>
<text x="6100.0" y="11740.0" font-family="Helvetica, Arial, sans-serif" font-size="150" fill="#7a6f5f" text-anchor="middle" font-weight="400" font-style="normal" transform="rotate(-90 6100.0 11740.0)">carport ≈ 4,2 m</text>
<line x1="6060.0" y1="9660.0" x2="6140.0" y2="9740.0" stroke="#7a6f5f" stroke-width="14" stroke-linecap="square"/>
<line x1="6060.0" y1="13860.0" x2="6140.0" y2="13940.0" stroke="#7a6f5f" stroke-width="14" stroke-linecap="square"/>
<circle cx="7600.0" cy="-2600.0" r="320.0" fill="white" stroke="#1b1b1b" stroke-width="18"/>
<polygon points="7600.0,-2849.6 7491.2,-2472.0 7600.0,-2561.6 7708.8,-2472.0" fill="#1b1b1b" stroke="none" stroke-width="0" stroke-linejoin="round" opacity="1"/>
<text x="7600.0" y="-2980.0" font-family="Helvetica, Arial, sans-serif" font-size="210" fill="#1b1b1b" text-anchor="middle" font-weight="700" font-style="normal">N</text>
<text x="7600.0" y="-2080.0" font-family="Helvetica, Arial, sans-serif" font-size="120" fill="#777" text-anchor="middle" font-weight="400" font-style="normal">achtertuin = noord (ind.)</text>
<rect x="0.0" y="14400.0" width="1000.0" height="120.0" fill="#1b1b1b" stroke="#1b1b1b" stroke-width="12" rx="0" opacity="1"/>
<rect x="1000.0" y="14400.0" width="1000.0" height="120.0" fill="white" stroke="#1b1b1b" stroke-width="12" rx="0" opacity="1"/>
<rect x="2000.0" y="14400.0" width="1000.0" height="120.0" fill="#1b1b1b" stroke="#1b1b1b" stroke-width="12" rx="0" opacity="1"/>
<rect x="3000.0" y="14400.0" width="1000.0" height="120.0" fill="white" stroke="#1b1b1b" stroke-width="12" rx="0" opacity="1"/>
<rect x="4000.0" y="14400.0" width="1000.0" height="120.0" fill="#1b1b1b" stroke="#1b1b1b" stroke-width="12" rx="0" opacity="1"/>
<text x="0.0" y="14340.0" font-family="Helvetica, Arial, sans-serif" font-size="120" fill="#1b1b1b" text-anchor="middle" font-weight="400" font-style="normal">0</text>
<text x="5000.0" y="14340.0" font-family="Helvetica, Arial, sans-serif" font-size="120" fill="#1b1b1b" text-anchor="middle" font-weight="400" font-style="normal">5 m</text>
<rect x="-1400.0" y="15300.0" width="8800.0" height="900.0" fill="white" stroke="#1b1b1b" stroke-width="18" rx="0" opacity="1"/>
<line x1="-1400.0" y1="15600.0" x2="7400.0" y2="15600.0" stroke="#1b1b1b" stroke-width="12" stroke-linecap="square"/>
<line x1="-1400.0" y1="15860.0" x2="7400.0" y2="15860.0" stroke="#1b1b1b" stroke-width="12" stroke-linecap="square"/>
<text x="-1280.0" y="15500.0" font-family="Helvetica, Arial, sans-serif" font-size="185" fill="#1b1b1b" text-anchor="start" font-weight="700" font-style="normal">Kruidenschans 24, Voorhout</text>
<text x="-1280.0" y="15760.0" font-family="Helvetica, Arial, sans-serif" font-size="240" fill="#c0532b" text-anchor="start" font-weight="700" font-style="normal">Begane grond</text>
<text x="-1280.0" y="16020.0" font-family="Helvetica, Arial, sans-serif" font-size="140" fill="#555" text-anchor="start" font-weight="400" font-style="normal">woningtype M4 – plan Oosthout B1 – herget. uit bestektek. 1986</text>
<text x="7280.0" y="16020.0" font-family="Helvetica, Arial, sans-serif" font-size="140" fill="#555" text-anchor="end" font-weight="400" font-style="normal">schaal 1:100 (indicatief)</text>
<text x="7280.0" y="15500.0" font-family="Helvetica, Arial, sans-serif" font-size="170" fill="#1b1b1b" text-anchor="end" font-weight="700" font-style="normal">blad 2 / 5</text></svg>