<svg xmlns="http://www.w3.org/2000/svg" width="1600" height="2150" viewBox="-2500 -3500 16000 21500"><polygon points="-1200.0,-2800.0 8600.0,-2800.0 8600.0,13800.0 -1200.0,13800.0" fill="#fbfaf6" stroke="#9a9a9a" stroke-width="40" stroke-linejoin="round" opacity="1" stroke-dasharray="220,160"/>
<text x="-900.0" y="-2400.0" font-family="Helvetica, Arial, sans-serif" font-size="210" fill="#8a8170" text-anchor="start" font-weight="400" font-style="italic">perceel VHT00-B-5008  ≈ 215 m²</text>
<rect x="-2500.0" y="14000.0" width="16000.0" height="2400.0" fill="#ededed" stroke="none" stroke-width="0" rx="0" opacity="1"/>
<text x="3700.0" y="15450.0" font-family="Helvetica, Arial, sans-serif" font-size="300" fill="#8a8a8a" text-anchor="middle" font-weight="700" font-style="normal" letter-spacing="14">K R U I D E N S C H A N S  (straat)</text>
<rect x="-1000.0" y="-2700.0" width="9400.0" height="8600.0" fill="#e8f0df" stroke="none" stroke-width="0" rx="0" opacity="1"/>
<text x="3700.0" y="-1300.0" font-family="Helvetica, Arial, sans-serif" font-size="300" fill="#6f8a55" text-anchor="middle" font-weight="700" font-style="normal" letter-spacing="10">ACHTERTUIN</text>
<line x1="0.0" y1="200.0" x2="0.0" y2="5600.0" stroke="#d6e4c4" stroke-width="14" stroke-linecap="square"/>
<line x1="700.0" y1="200.0" x2="700.0" y2="5600.0" stroke="#d6e4c4" stroke-width="14" stroke-linecap="square"/>
<line x1="1400.0" y1="200.0" x2="1400.0" y2="5600.0" stroke="#d6e4c4" stroke-width="14" stroke-linecap="square"/>
<line x1="2100.0" y1="200.0" x2="2100.0" y2="5600.0" stroke="#d6e4c4" stroke-width="14" stroke-linecap="square"/>
<line x1="2800.0" y1="200.0" x2="2800.0" y2="5600.0" stroke="#d6e4c4" stroke-width="14" stroke-linecap="square"/>
<line x1="3500.0" y1="200.0" x2="3500.0" y2="5600.0" stroke="#d6e4c4" stroke-width="14" stroke-linecap="square"/>
<line x1="4200.0" y1="200.0" x2="4200.0" y2="5600.0" stroke="#d6e4c4" stroke-width="14" stroke-linecap="square"/>
<line x1="4900.0" y1="200.0" x2="4900.0" y2="5600.0" stroke="#d6e4c4" stroke-width="14" stroke-linecap="square"/>
<line x1="5600.0" y1="200.0" x2="5600.0" y2="5600.0" stroke="#d6e4c4" stroke-width="14" stroke-linecap="square"/>
<line x1="6300.0" y1="200.0" x2="6300.0" y2="5600.0" stroke="#d6e4c4" stroke-width="14" stroke-linecap="square"/>
<line x1="7000.0" y1="200.0" x2="7000.0" y2="5600.0" stroke="#d6e4c4" stroke-width="14" stroke-linecap="square"/>
<line x1="7700.0" y1="200.0" x2="7700.0" y2="5600.0" stroke="#d6e4c4" stroke-width="14" stroke-linecap="square"/>
<circle cx="6900.0" cy="1400.0" r="850.0" fill="#cfe0b6" stroke="#9bb578" stroke-width="30"/>
<circle cx="900.0" cy="4600.0" r="650.0" fill="#cfe0b6" stroke="#9bb578" stroke-width="30"/>
<rect x="5700.0" y="4400.0" width="2400.0" height="1400.0" fill="#e7ddc8" stroke="#9a8d72" stroke-width="30" rx="0" opacity="1"/>
<text x="6900.0" y="5250.0" font-family="Helvetica, Arial, sans-serif" font-size="170" fill="#7a6f5a" text-anchor="middle" font-weight="400" font-style="normal">tuinkast</text>
<rect x="200.0" y="5900.0" width="3200.0" height="1200.0" fill="#efece4" stroke="#cbc3b2" stroke-width="20" rx="0" opacity="1"/>
<line x1="300.0" y1="5950.0" x2="300.0" y2="7050.0" stroke="#d9d2c2" stroke-width="12" stroke-linecap="square"/>
<line x1="680.0" y1="5950.0" x2="680.0" y2="7050.0" stroke="#d9d2c2" stroke-width="12" stroke-linecap="square"/>
<line x1="1060.0" y1="5950.0" x2="1060.0" y2="7050.0" stroke="#d9d2c2" stroke-width="12" stroke-linecap="square"/>
<line x1="1440.0" y1="5950.0" x2="1440.0" y2="7050.0" stroke="#d9d2c2" stroke-width="12" stroke-linecap="square"/>
<line x1="1820.0" y1="5950.0" x2="1820.0" y2="7050.0" stroke="#d9d2c2" stroke-width="12" stroke-linecap="square"/>
<line x1="2200.0" y1="5950.0" x2="2200.0" y2="7050.0" stroke="#d9d2c2" stroke-width="12" stroke-linecap="square"/>
<line x1="2580.0" y1="5950.0" x2="2580.0" y2="7050.0" stroke="#d9d2c2" stroke-width="12" stroke-linecap="square"/>
<line x1="2960.0" y1="5950.0" x2="2960.0" y2="7050.0" stroke="#d9d2c2" stroke-width="12" stroke-linecap="square"/>
<line x1="3340.0" y1="5950.0" x2="3340.0" y2="7050.0" stroke="#d9d2c2" stroke-width="12" stroke-linecap="square"/>
<text x="1700.0" y="6650.0" font-family="Helvetica, Arial, sans-serif" font-size="180" fill="#8a8170" text-anchor="middle" font-weight="400" font-style="normal">terras</text>
<rect x="200.0" y="7100.0" width="5200.0" height="4900.0" fill="#dfe7ee" stroke="#2b2b2b" stroke-width="240" rx="0" opacity="1"/>
<text x="2800.0" y="8500.0" font-family="Helvetica, Arial, sans-serif" font-size="300" fill="#3c5a72" text-anchor="middle" font-weight="700" font-style="normal">WONING</text>
<text x="2800.0" y="8900.0" font-family="Helvetica, Arial, sans-serif" font-size="180" fill="#5c6b78" text-anchor="middle" font-weight="400" font-style="normal">begane grond</text>
<text x="2800.0" y="11600.0" font-family="Helvetica, Arial, sans-serif" font-size="170" fill="#5c6b78" text-anchor="middle" font-weight="400" font-style="normal">voorzijde / entree</text>
<rect x="2100.0" y="11880.0" width="900.0" height="200.0" fill="#c0532b" stroke="none" stroke-width="0" rx="0" opacity="1"/>
<rect x="5600.0" y="7100.0" width="2600.0" height="6900.0" fill="#efece4" stroke="#cbc3b2" stroke-width="30" rx="0" opacity="1"/>
<rect x="5800.0" y="7300.0" width="300.0" height="300.0" fill="none" stroke="#ddd5c4" stroke-width="12" rx="0" opacity="1"/>
<rect x="5800.0" y="7660.0" width="300.0" height="300.0" fill="none" stroke="#ddd5c4" stroke-width="12" rx="0" opacity="1"/>
<rect x="5800.0" y="8020.0" width="300.0" height="300.0" fill="none" stroke="#ddd5c4" stroke-width="12" rx="0" opacity="1"/>
<rect x="5800.0" y="8380.0" width="300.0" height="300.0" fill="none" stroke="#ddd5c4" stroke-width="12" rx="0" opacity="1"/>
<rect x="5800.0" y="8740.0" width="300.0" height="300.0" fill="none" stroke="#ddd5c4" stroke-width="12" rx="0" opacity="1"/>
<rect x="5800.0" y="9100.0" width="300.0" height="300.0" fill="none" stroke="#ddd5c4" stroke-width="12" rx="0" opacity="1"/>
<rect x="5800.0" y="9460.0" width="300.0" height="300.0" fill="none" stroke="#ddd5c4" stroke-width="12" rx="0" opacity="1"/>
<rect x="5800.0" y="9820.0" width="300.0" height="300.0" fill="none" stroke="#ddd5c4" stroke-width="12" rx="0" opacity="1"/>
<rect x="5800.0" y="10180.0" width="300.0" height="300.0" fill="none" stroke="#ddd5c4" stroke-width="12" rx="0" opacity="1"/>
<rect x="5800.0" y="10540.0" width="300.0" height="300.0" fill="none" stroke="#ddd5c4" stroke-width="12" rx="0" opacity="1"/>
<rect x="5800.0" y="10900.0" width="300.0" height="300.0" fill="none" stroke="#ddd5c4" stroke-width="12" rx="0" opacity="1"/>
<rect x="5800.0" y="11260.0" width="300.0" height="300.0" fill="none" stroke="#ddd5c4" stroke-width="12" rx="0" opacity="1"/>
<rect x="5800.0" y="11620.0" width="300.0" height="300.0" fill="none" stroke="#ddd5c4" stroke-width="12" rx="0" opacity="1"/>
<rect x="5800.0" y="11980.0" width="300.0" height="300.0" fill="none" stroke="#ddd5c4" stroke-width="12" rx="0" opacity="1"/>
<rect x="5800.0" y="12340.0" width="300.0" height="300.0" fill="none" stroke="#ddd5c4" stroke-width="12" rx="0" opacity="1"/>
<rect x="5800.0" y="12700.0" width="300.0" height="300.0" fill="none" stroke="#ddd5c4" stroke-width="12" rx="0" opacity="1"/>
<rect x="5800.0" y="13060.0" width="300.0" height="300.0" fill="none" stroke="#ddd5c4" stroke-width="12" rx="0" opacity="1"/>
<rect x="5800.0" y="13420.0" width="300.0" height="300.0" fill="none" stroke="#ddd5c4" stroke-width="12" rx="0" opacity="1"/>
<rect x="5800.0" y="13780.0" width="300.0" height="300.0" fill="none" stroke="#ddd5c4" stroke-width="12" rx="0" opacity="1"/>
<rect x="6160.0" y="7300.0" width="300.0" height="300.0" fill="none" stroke="#ddd5c4" stroke-width="12" rx="0" opacity="1"/>
<rect x="6160.0" y="7660.0" width="300.0" height="300.0" fill="none" stroke="#ddd5c4" stroke-width="12" rx="0" opacity="1"/>
<rect x="6160.0" y="8020.0" width="300.0" height="300.0" fill="none" stroke="#ddd5c4" stroke-width="12" rx="0" opacity="1"/>
<rect x="6160.0" y="8380.0" width="300.0" height="300.0" fill="none" stroke="#ddd5c4" stroke-width="12" rx="0" opacity="1"/>
<rect x="6160.0" y="8740.0" width="300.0" height="300.0" fill="none" stroke="#ddd5c4" stroke-width="12" rx="0" opacity="1"/>
<rect x="6160.0" y="9100.0" width="300.0" height="300.0" fill="none" stroke="#ddd5c4" stroke-width="12" rx="0" opacity="1"/>
<rect x="6160.0" y="9460.0" width="300.0" height="300.0" fill="none" stroke="#ddd5c4" stroke-width="12" rx="0" opacity="1"/>
<rect x="6160.0" y="9820.0" width="300.0" height="300.0" fill="none" stroke="#ddd5c4" stroke-width="12" rx="0" opacity="1"/>
<rect x="6160.0" y="10180.0" width="300.0" height="300.0" fill="none" stroke="#ddd5c4" stroke-width="12" rx="0" opacity="1"/>
<rect x="6160.0" y="10540.0" width="300.0" height="300.0" fill="none" stroke="#ddd5c4" stroke-width="12" rx="0" opacity="1"/>
<rect x="6160.0" y="10900.0" width="300.0" height="300.0" fill="none" stroke="#ddd5c4" stroke-width="12" rx="0" opacity="1"/>
<rect x="6160.0" y="11260.0" width="300.0" height="300.0" fill="none" stroke="#ddd5c4" stroke-width="12" rx="0" opacity="1"/>
<rect x="6160.0" y="11620.0" width="300.0" height="300.0" fill="none" stroke="#ddd5c4" stroke-width="12" rx="0" opacity="1"/>
<rect x="6160.0" y="11980.0" width="300.0" height="300.0" fill="none" stroke="#ddd5c4" stroke-width="12" rx="0" opacity="1"/>
<rect x="6160.0" y="12340.0" width="300.0" height="300.0" fill="none" stroke="#ddd5c4" stroke-width="12" rx="0" opacity="1"/>
<rect x="6160.0" y="12700.0" width="300.0" height="300.0" fill="none" stroke="#ddd5c4" stroke-width="12" rx="0" opacity="1"/>
<rect x="6160.0" y="13060.0" width="300.0" height="300.0" fill="none" stroke="#ddd5c4" stroke-width="12" rx="0" opacity="1"/>
<rect x="6160.0" y="13420.0" width="300.0" height="300.0" fill="none" stroke="#ddd5c4" stroke-width="12" rx="0" opacity="1"/>
<rect x="6160.0" y="13780.0" width="300.0" height="300.0" fill="none" stroke="#ddd5c4" stroke-width="12" rx="0" opacity="1"/>
<rect x="6520.0" y="7300.0" width="300.0" height="300.0" fill="none" stroke="#ddd5c4" stroke-width="12" rx="0" opacity="1"/>
<rect x="6520.0" y="7660.0" width="300.0" height="300.0" fill="none" stroke="#ddd5c4" stroke-width="12" rx="0" opacity="1"/>
<rect x="6520.0" y="8020.0" width="300.0" height="300.0" fill="none" stroke="#ddd5c4" stroke-width="12" rx="0" opacity="1"/>
<rect x="6520.0" y="8380.0" width="300.0" height="300.0" fill="none" stroke="#ddd5c4" stroke-width="12" rx="0" opacity="1"/>
<rect x="6520.0" y="8740.0" width="300.0" height="300.0" fill="none" stroke="#ddd5c4" stroke-width="12" rx="0" opacity="1"/>
<rect x="6520.0" y="9100.0" width="300.0" height="300.0" fill="none" stroke="#ddd5c4" stroke-width="12" rx="0" opacity="1"/>
<rect x="6520.0" y="9460.0" width="300.0" height="300.0" fill="none" stroke="#ddd5c4" stroke-width="12" rx="0" opacity="1"/>
<rect x="6520.0" y="9820.0" width="300.0" height="300.0" fill="none" stroke="#ddd5c4" stroke-width="12" rx="0" opacity="1"/>
<rect x="6520.0" y="10180.0" width="300.0" height="300.0" fill="none" stroke="#ddd5c4" stroke-width="12" rx="0" opacity="1"/>
<rect x="6520.0" y="10540.0" width="300.0" height="300.0" fill="none" stroke="#ddd5c4" stroke-width="12" rx="0" opacity="1"/>
<rect x="6520.0" y="10900.0" width="300.0" height="300.0" fill="none" stroke="#ddd5c4" stroke-width="12" rx="0" opacity="1"/>
<rect x="6520.0" y="11260.0" width="300.0" height="300.0" fill="none" stroke="#ddd5c4" stroke-width="12" rx="0" opacity="1"/>
<rect x="6520.0" y="11620.0" width="300.0" height="300.0" fill="none" stroke="#ddd5c4" stroke-width="12" rx="0" opacity="1"/>
<rect x="6520.0" y="11980.0" width="300.0" height="300.0" fill="none" stroke="#ddd5c4" stroke-width="12" rx="0" opacity="1"/>
<rect x="6520.0" y="12340.0" width="300.0" height="300.0" fill="none" stroke="#ddd5c4" stroke-width="12" rx="0" opacity="1"/>
<rect x="6520.0" y="12700.0" width="300.0" height="300.0" fill="none" stroke="#ddd5c4" stroke-width="12" rx="0" opacity="1"/>
<rect x="6520.0" y="13060.0" width="300.0" height="300.0" fill="none" stroke="#ddd5c4" stroke-width="12" rx="0" opacity="1"/>
<rect x="6520.0" y="13420.0" width="300.0" height="300.0" fill="none" stroke="#ddd5c4" stroke-width="12" rx="0" opacity="1"/>
<rect x="6520.0" y="13780.0" width="300.0" height="300.0" fill="none" stroke="#ddd5c4" stroke-width="12" rx="0" opacity="1"/>
<rect x="6880.0" y="7300.0" width="300.0" height="300.0" fill="none" stroke="#ddd5c4" stroke-width="12" rx="0" opacity="1"/>
<rect x="6880.0" y="7660.0" width="300.0" height="300.0" fill="none" stroke="#ddd5c4" stroke-width="12" rx="0" opacity="1"/>
<rect x="6880.0" y="8020.0" width="300.0" height="300.0" fill="none" stroke="#ddd5c4" stroke-width="12" rx="0" opacity="1"/>
<rect x="6880.0" y="8380.0" width="300.0" height="300.0" fill="none" stroke="#ddd5c4" stroke-width="12" rx="0" opacity="1"/>
<rect x="6880.0" y="8740.0" width="300.0" height="300.0" fill="none" stroke="#ddd5c4" stroke-width="12" rx="0" opacity="1"/>
<rect x="6880.0" y="9100.0" width="300.0" height="300.0" fill="none" stroke="#ddd5c4" stroke-width="12" rx="0" opacity="1"/>
<rect x="6880.0" y="9460.0" width="300.0" height="300.0" fill="none" stroke="#ddd5c4" stroke-width="12" rx="0" opacity="1"/>
<rect x="6880.0" y="9820.0" width="300.0" height="300.0" fill="none" stroke="#ddd5c4" stroke-width="12" rx="0" opacity="1"/>
<rect x="6880.0" y="10180.0" width="300.0" height="300.0" fill="none" stroke="#ddd5c4" stroke-width="12" rx="0" opacity="1"/>
<rect x="6880.0" y="10540.0" width="300.0" height="300.0" fill="none" stroke="#ddd5c4" stroke-width="12" rx="0" opacity="1"/>
<rect x="6880.0" y="10900.0" width="300.0" height="300.0" fill="none" stroke="#ddd5c4" stroke-width="12" rx="0" opacity="1"/>
<rect x="6880.0" y="11260.0" width="300.0" height="300.0" fill="none" stroke="#ddd5c4" stroke-width="12" rx="0" opacity="1"/>
<rect x="6880.0" y="11620.0" width="300.0" height="300.0" fill="none" stroke="#ddd5c4" stroke-width="12" rx="0" opacity="1"/>
<rect x="6880.0" y="11980.0" width="300.0" height="300.0" fill="none" stroke="#ddd5c4" stroke-width="12" rx="0" opacity="1"/>
<rect x="6880.0" y="12340.0" width="300.0" height="300.0" fill="none" stroke="#ddd5c4" stroke-width="12" rx="0" opacity="1"/>
<rect x="6880.0" y="12700.0" width="300.0" height="300.0" fill="none" stroke="#ddd5c4" stroke-width="12" rx="0" opacity="1"/>
<rect x="6880.0" y="13060.0" width="300.0" height="300.0" fill="none" stroke="#ddd5c4" stroke-width="12" rx="0" opacity="1"/>
<rect x="6880.0" y="13420.0" width="300.0" height="300.0" fill="none" stroke="#ddd5c4" stroke-width="12" rx="0" opacity="1"/>
<rect x="6880.0" y="13780.0" width="300.0" height="300.0" fill="none" stroke="#ddd5c4" stroke-width="12" rx="0" opacity="1"/>
<rect x="7240.0" y="7300.0" width="300.0" height="300.0" fill="none" stroke="#ddd5c4" stroke-width="12" rx="0" opacity="1"/>
<rect x="7240.0" y="7660.0" width="300.0" height="300.0" fill="none" stroke="#ddd5c4" stroke-width="12" rx="0" opacity="1"/>
<rect x="7240.0" y="8020.0" width="300.0" height="300.0" fill="none" stroke="#ddd5c4" stroke-width="12" rx="0" opacity="1"/>
<rect x="7240.0" y="8380.0" width="300.0" height="300.0" fill="none" stroke="#ddd5c4" stroke-width="12" rx="0" opacity="1"/>
<rect x="7240.0" y="8740.0" width="300.0" height="300.0" fill="none" stroke="#ddd5c4" stroke-width="12" rx="0" opacity="1"/>
<rect x="7240.0" y="9100.0" width="300.0" height="300.0" fill="none" stroke="#ddd5c4" stroke-width="12" rx="0" opacity="1"/>
<rect x="7240.0" y="9460.0" width="300.0" height="300.0" fill="none" stroke="#ddd5c4" stroke-width="12" rx="0" opacity="1"/>
<rect x="7240.0" y="9820.0" width="300.0" height="300.0" fill="none" stroke="#ddd5c4" stroke-width="12" rx="0" opacity="1"/>
<rect x="7240.0" y="10180.0" width="300.0" height="300.0" fill="none" stroke="#ddd5c4" stroke-width="12" rx="0" opacity="1"/>
<rect x="7240.0" y="10540.0" width="300.0" height="300.0" fill="none" stroke="#ddd5c4" stroke-width="12" rx="0" opacity="1"/>
<rect x="7240.0" y="10900.0" width="300.0" height="300.0" fill="none" stroke="#ddd5c4" stroke-width="12" rx="0" opacity="1"/>
<rect x="7240.0" y="11260.0" width="300.0" height="300.0" fill="none" stroke="#ddd5c4" stroke-width="12" rx="0" opacity="1"/>
<rect x="7240.0" y="11620.0" width="300.0" height="300.0" fill="none" stroke="#ddd5c4" stroke-width="12" rx="0" opacity="1"/>
<rect x="7240.0" y="11980.0" width="300.0" height="300.0" fill="none" stroke="#ddd5c4" stroke-width="12" rx="0" opacity="1"/>
<rect x="7240.0" y="12340.0" width="300.0" height="300.0" fill="none" stroke="#ddd5c4" stroke-width="12" rx="0" opacity="1"/>
<rect x="7240.0" y="12700.0" width="300.0" height="300.0" fill="none" stroke="#ddd5c4" stroke-width="12" rx="0" opacity="1"/>
<rect x="7240.0" y="13060.0" width="300.0" height="300.0" fill="none" stroke="#ddd5c4" stroke-width="12" rx="0" opacity="1"/>
<rect x="7240.0" y="13420.0" width="300.0" height="300.0" fill="none" stroke="#ddd5c4" stroke-width="12" rx="0" opacity="1"/>
<rect x="7240.0" y="13780.0" width="300.0" height="300.0" fill="none" stroke="#ddd5c4" stroke-width="12" rx="0" opacity="1"/>
<rect x="7600.0" y="7300.0" width="300.0" height="300.0" fill="none" stroke="#ddd5c4" stroke-width="12" rx="0" opacity="1"/>
<rect x="7600.0" y="7660.0" width="300.0" height="300.0" fill="none" stroke="#ddd5c4" stroke-width="12" rx="0" opacity="1"/>
<rect x="7600.0" y="8020.0" width="300.0" height="300.0" fill="none" stroke="#ddd5c4" stroke-width="12" rx="0" opacity="1"/>
<rect x="7600.0" y="8380.0" width="300.0" height="300.0" fill="none" stroke="#ddd5c4" stroke-width="12" rx="0" opacity="1"/>
<rect x="7600.0" y="8740.0" width="300.0" height="300.0" fill="none" stroke="#ddd5c4" stroke-width="12" rx="0" opacity="1"/>
<rect x="7600.0" y="9100.0" width="300.0" height="300.0" fill="none" stroke="#ddd5c4" stroke-width="12" rx="0" opacity="1"/>
<rect x="7600.0" y="9460.0" width="300.0" height="300.0" fill="none" stroke="#ddd5c4" stroke-width="12" rx="0" opacity="1"/>
<rect x="7600.0" y="9820.0" width="300.0" height="300.0" fill="none" stroke="#ddd5c4" stroke-width="12" rx="0" opacity="1"/>
<rect x="7600.0" y="10180.0" width="300.0" height="300.0" fill="none" stroke="#ddd5c4" stroke-width="12" rx="0" opacity="1"/>
<rect x="7600.0" y="10540.0" width="300.0" height="300.0" fill="none" stroke="#ddd5c4" stroke-width="12" rx="0" opacity="1"/>
<rect x="7600.0" y="10900.0" width="300.0" height="300.0" fill="none" stroke="#ddd5c4" stroke-width="12" rx="0" opacity="1"/>
<rect x="7600.0" y="11260.0" width="300.0" height="300.0" fill="none" stroke="#ddd5c4" stroke-width="12" rx="0" opacity="1"/>
<rect x="7600.0" y="11620.0" width="300.0" height="300.0" fill="none" stroke="#ddd5c4" stroke-width="12" rx="0" opacity="1"/>
<rect x="7600.0" y="11980.0" width="300.0" height="300.0" fill="none" stroke="#ddd5c4" stroke-width="12" rx="0" opacity="1"/>
<rect x="7600.0" y="12340.0" width="300.0" height="300.0" fill="none" stroke="#ddd5c4" stroke-width="12" rx="0" opacity="1"/>
<rect x="7600.0" y="12700.0" width="300.0" height="300.0" fill="none" stroke="#ddd5c4" stroke-width="12" rx="0" opacity="1"/>
<rect x="7600.0" y="13060.0" width="300.0" height="300.0" fill="none" stroke="#ddd5c4" stroke-width="12" rx="0" opacity="1"/>
<rect x="7600.0" y="13420.0" width="300.0" height="300.0" fill="none" stroke="#ddd5c4" stroke-width="12" rx="0" opacity="1"/>
<rect x="7600.0" y="13780.0" width="300.0" height="300.0" fill="none" stroke="#ddd5c4" stroke-width="12" rx="0" opacity="1"/>
<rect x="7960.0" y="7300.0" width="300.0" height="300.0" fill="none" stroke="#ddd5c4" stroke-width="12" rx="0" opacity="1"/>
<rect x="7960.0" y="7660.0" width="300.0" height="300.0" fill="none" stroke="#ddd5c4" stroke-width="12" rx="0" opacity="1"/>
<rect x="7960.0" y="8020.0" width="300.0" height="300.0" fill="none" stroke="#ddd5c4" stroke-width="12" rx="0" opacity="1"/>
<rect x="7960.0" y="8380.0" width="300.0" height="300.0" fill="none" stroke="#ddd5c4" stroke-width="12" rx="0" opacity="1"/>
<rect x="7960.0" y="8740.0" width="300.0" height="300.0" fill="none" stroke="#ddd5c4" stroke-width="12" rx="0" opacity="1"/>
<rect x="7960.0" y="9100.0" width="300.0" height="300.0" fill="none" stroke="#ddd5c4" stroke-width="12" rx="0" opacity="1"/>
<rect x="7960.0" y="9460.0" width="300.0" height="300.0" fill="none" stroke="#ddd5c4" stroke-width="12" rx="0" opacity="1"/>
<rect x="7960.0" y="9820.0" width="300.0" height="300.0" fill="none" stroke="#ddd5c4" stroke-width="12" rx="0" opacity="1"/>
<rect x="7960.0" y="10180.0" width="300.0" height="300.0" fill="none" stroke="#ddd5c4" stroke-width="12" rx="0" opacity="1"/>
<rect x="7960.0" y="10540.0" width="300.0" height="300.0" fill="none" stroke="#ddd5c4" stroke-width="12" rx="0" opacity="1"/>
<rect x="7960.0" y="10900.0" width="300.0" height="300.0" fill="none" stroke="#ddd5c4" stroke-width="12" rx="0" opacity="1"/>
<rect x="7960.0" y="11260.0" width="300.0" height="300.0" fill="none" stroke="#ddd5c4" stroke-width="12" rx="0" opacity="1"/>
<rect x="7960.0" y="11620.0" width="300.0" height="300.0" fill="none" stroke="#ddd5c4" stroke-width="12" rx="0" opacity="1"/>
<rect x="7960.0" y="11980.0" width="300.0" height="300.0" fill="none" stroke="#ddd5c4" stroke-width="12" rx="0" opacity="1"/>
<rect x="7960.0" y="12340.0" width="300.0" height="300.0" fill="none" stroke="#ddd5c4" stroke-width="12" rx="0" opacity="1"/>
<rect x="7960.0" y="12700.0" width="300.0" height="300.0" fill="none" stroke="#ddd5c4" stroke-width="12" rx="0" opacity="1"/>
<rect x="7960.0" y="13060.0" width="300.0" height="300.0" fill="none" stroke="#ddd5c4" stroke-width="12" rx="0" opacity="1"/>
<rect x="7960.0" y="13420.0" width="300.0" height="300.0" fill="none" stroke="#ddd5c4" stroke-width="12" rx="0" opacity="1"/>
<rect x="7960.0" y="13780.0" width="300.0" height="300.0" fill="none" stroke="#ddd5c4" stroke-width="12" rx="0" opacity="1"/>
<text x="6900.0" y="7700.0" font-family="Helvetica, Arial, sans-serif" font-size="200" fill="#8a8170" text-anchor="middle" font-weight="400" font-style="normal">oprit /</text>
<text x="6900.0" y="8000.0" font-family="Helvetica, Arial, sans-serif" font-size="200" fill="#8a8170" text-anchor="middle" font-weight="400" font-style="normal">carport</text>
<rect x="5600.0" y="7100.0" width="2600.0" height="3400.0" fill="none" stroke="#c0532b" stroke-width="40" rx="0" opacity="1" stroke-dasharray="180,140"/>
<circle cx="7200.0" cy="9600.0" r="1000.0" fill="#cfe0b6" stroke="#9bb578" stroke-width="30"/>
<text x="7200.0" y="9650.0" font-family="Helvetica, Arial, sans-serif" font-size="150" fill="#6f8a55" text-anchor="middle" font-weight="400" font-style="normal">boom</text>
<line x1="-1000.0" y1="12400.0" x2="5400.0" y2="12400.0" stroke="#8fae6a" stroke-width="70" stroke-linecap="square" stroke-dasharray="120,90"/>
<text x="2200.0" y="12250.0" font-family="Helvetica, Arial, sans-serif" font-size="150" fill="#6f8a55" text-anchor="start" font-weight="400" font-style="normal">haag</text>
<rect x="3050.0" y="12120.0" width="900.0" height="260.0" fill="#cdbd9c" stroke="#9a8d72" stroke-width="18" rx="0" opacity="1"/>
<circle cx="9600.0" cy="-1900.0" r="320.0" fill="white" stroke="#1b1b1b" stroke-width="18"/>
<polygon points="9600.0,-2149.6 9491.2,-1772.0 9600.0,-1861.6 9708.8,-1772.0" fill="#1b1b1b" stroke="none" stroke-width="0" stroke-linejoin="round" opacity="1"/>
<text x="9600.0" y="-2280.0" font-family="Helvetica, Arial, sans-serif" font-size="210" fill="#1b1b1b" text-anchor="middle" font-weight="700" font-style="normal">N</text>
<text x="9600.0" y="-1380.0" font-family="Helvetica, Arial, sans-serif" font-size="120" fill="#777" text-anchor="middle" font-weight="400" font-style="normal">oriëntatie indicatief</text>
<rect x="9000.0" y="12800.0" width="1000.0" height="120.0" fill="#1b1b1b" stroke="#1b1b1b" stroke-width="12" rx="0" opacity="1"/>
<rect x="10000.0" y="12800.0" width="1000.0" height="120.0" fill="white" stroke="#1b1b1b" stroke-width="12" rx="0" opacity="1"/>
<rect x="11000.0" y="12800.0" width="1000.0" height="120.0" fill="#1b1b1b" stroke="#1b1b1b" stroke-width="12" rx="0" opacity="1"/>
<rect x="12000.0" y="12800.0" width="1000.0" height="120.0" fill="white" stroke="#1b1b1b" stroke-width="12" rx="0" opacity="1"/>
<rect x="13000.0" y="12800.0" width="1000.0" height="120.0" fill="#1b1b1b" stroke="#1b1b1b" stroke-width="12" rx="0" opacity="1"/>
<text x="9000.0" y="12740.0" font-family="Helvetica, Arial, sans-serif" font-size="120" fill="#1b1b1b" text-anchor="middle" font-weight="400" font-style="normal">0</text>
<text x="14000.0" y="12740.0" font-family="Helvetica, Arial, sans-serif" font-size="120" fill="#1b1b1b" text-anchor="middle" font-weight="400" font-style="normal">5 m</text>
<line x1="-1700.0" y1="-2800.0" x2="-1700.0" y2="13800.0" stroke="#7a6f5f" stroke-width="18" stroke-linecap="square"/>
<text x="-1700.0" y="5440.0" font-family="Helvetica, Arial, sans-serif" font-size="150" fill="#7a6f5f" text-anchor="middle" font-weight="400" font-style="normal" transform="rotate(-90 -1700.0 5440.0)">perceel ≈ 40 m</text>
<line x1="-1740.0" y1="-2840.0" x2="-1660.0" y2="-2760.0" stroke="#7a6f5f" stroke-width="14" stroke-linecap="square"/>
<line x1="-1740.0" y1="13760.0" x2="-1660.0" y2="13840.0" stroke="#7a6f5f" stroke-width="14" stroke-linecap="square"/>
<rect x="-2400.0" y="16900.0" width="15800.0" height="900.0" fill="white" stroke="#1b1b1b" stroke-width="18" rx="0" opacity="1"/>
<line x1="-2400.0" y1="17200.0" x2="13400.0" y2="17200.0" stroke="#1b1b1b" stroke-width="12" stroke-linecap="square"/>
<line x1="-2400.0" y1="17460.0" x2="13400.0" y2="17460.0" stroke="#1b1b1b" stroke-width="12" stroke-linecap="square"/>
<text x="-2280.0" y="17100.0" font-family="Helvetica, Arial, sans-serif" font-size="185" fill="#1b1b1b" text-anchor="start" font-weight="700" font-style="normal">Kruidenschans 24, Voorhout</text>
<text x="-2280.0" y="17360.0" font-family="Helvetica, Arial, sans-serif" font-size="240" fill="#c0532b" text-anchor="start" font-weight="700" font-style="normal">Situatie &amp; tuin</text>
<text x="-2280.0" y="17620.0" font-family="Helvetica, Arial, sans-serif" font-size="140" fill="#555" text-anchor="start" font-weight="400" font-style="normal">woningtype M4 – plan Oosthout B1 – herget. uit bestektek. 1986</text>
<text x="13280.0" y="17620.0" font-family="Helvetica, Arial, sans-serif" font-size="140" fill="#555" text-anchor="end" font-weight="400" font-style="normal">schaal 1:200 (indicatief)</text>
<text x="13280.0" y="17100.0" font-family="Helvetica, Arial, sans-serif" font-size="170" fill="#1b1b1b" text-anchor="end" font-weight="700" font-style="normal">blad 1 / 5</text></svg>