<svg xmlns="http://www.w3.org/2000/svg" width="1400" height="1700" viewBox="-1500 -2400 9000 14600"><text x="2700.0" y="-1900.0" font-family="Helvetica, Arial, sans-serif" font-size="190" fill="#6f8a55" text-anchor="middle" font-weight="700" font-style="normal">▲  achterzijde (tuin)</text>
<rect x="0.0" y="0.0" width="5400.0" height="9400.0" fill="#f7f4ee" stroke="none" stroke-width="0" rx="0" opacity="1"/>
<rect x="200.0" y="200.0" width="2800.0" height="4200.0" fill="#f7f4ee" stroke="none" stroke-width="0" rx="0" opacity="1"/>
<rect x="3000.0" y="200.0" width="2200.0" height="4200.0" fill="#f7f4ee" stroke="none" stroke-width="0" rx="0" opacity="1"/>
<rect x="200.0" y="4500.0" width="2100.0" height="2000.0" fill="#e7f0f4" stroke="none" stroke-width="0" rx="0" opacity="1"/>
<rect x="200.0" y="6700.0" width="5000.0" height="2500.0" fill="#eef3f5" stroke="none" stroke-width="0" rx="0" opacity="1"/>
<rect x="0.0" y="0.0" width="5400.0" height="9400.0" fill="none" stroke="#2b2b2b" stroke-width="240" rx="0" opacity="1"/>
<line x1="0.0" y1="0.0" x2="0.0" y2="9400.0" stroke="#2b2b2b" stroke-width="300" stroke-linecap="square"/>
<line x1="5400.0" y1="0.0" x2="5400.0" y2="9400.0" stroke="#2b2b2b" stroke-width="300" stroke-linecap="square"/>
<line x1="3000.0" y1="200.0" x2="3000.0" y2="4400.0" stroke="#2b2b2b" stroke-width="100" stroke-linecap="square"/>
<line x1="200.0" y1="4400.0" x2="5200.0" y2="4400.0" stroke="#2b2b2b" stroke-width="100" stroke-linecap="square"/>
<line x1="2300.0" y1="4400.0" x2="2300.0" y2="6600.0" stroke="#2b2b2b" stroke-width="100" stroke-linecap="square"/>
<line x1="3600.0" y1="4400.0" x2="3600.0" y2="6600.0" stroke="#2b2b2b" stroke-width="100" stroke-linecap="square"/>
<line x1="200.0" y1="6600.0" x2="5200.0" y2="6600.0" stroke="#2b2b2b" stroke-width="100" stroke-linecap="square"/>
<line x1="200.0" y1="6500.0" x2="2300.0" y2="6500.0" stroke="#2b2b2b" stroke-width="100" stroke-linecap="square"/>
<rect x="700.0" y="-240.0" width="3000.0" height="240.0" fill="#dfe7ee" stroke="#7a90a4" stroke-width="24" rx="0" opacity="1"/>
<text x="2200.0" y="-90.0" font-family="Helvetica, Arial, sans-serif" font-size="120" fill="#5c6b78" text-anchor="middle" font-weight="400" font-style="normal">dakkapel</text>
<rect x="900.0" y="9400.0" width="3200.0" height="240.0" fill="#dfe7ee" stroke="#7a90a4" stroke-width="24" rx="0" opacity="1"/>
<text x="2500.0" y="9570.0" font-family="Helvetica, Arial, sans-serif" font-size="120" fill="#5c6b78" text-anchor="middle" font-weight="400" font-style="normal">dakkapel</text>
<line x1="600.0" y1="0.0" x2="2600.0" y2="0.0" stroke="white" stroke-width="270" stroke-linecap="square"/>
<line x1="600.0" y1="0.0" x2="2600.0" y2="0.0" stroke="#7fa9c4" stroke-width="60" stroke-linecap="square"/>
<line x1="600.0" y1="0.0" x2="2600.0" y2="0.0" stroke="white" stroke-width="20" stroke-linecap="square"/>
<line x1="3200.0" y1="0.0" x2="5000.0" y2="0.0" stroke="white" stroke-width="270" stroke-linecap="square"/>
<line x1="3200.0" y1="0.0" x2="5000.0" y2="0.0" stroke="#7fa9c4" stroke-width="60" stroke-linecap="square"/>
<line x1="3200.0" y1="0.0" x2="5000.0" y2="0.0" stroke="white" stroke-width="20" stroke-linecap="square"/>
<line x1="1000.0" y1="9400.0" x2="4000.0" y2="9400.0" stroke="white" stroke-width="270" stroke-linecap="square"/>
<line x1="1000.0" y1="9400.0" x2="4000.0" y2="9400.0" stroke="#7fa9c4" stroke-width="60" stroke-linecap="square"/>
<line x1="1000.0" y1="9400.0" x2="4000.0" y2="9400.0" stroke="white" stroke-width="20" stroke-linecap="square"/>
<line x1="0.0" y1="1000.0" x2="0.0" y2="3200.0" stroke="white" stroke-width="270" stroke-linecap="square"/>
<line x1="0.0" y1="1000.0" x2="0.0" y2="3200.0" stroke="#7fa9c4" stroke-width="60" stroke-linecap="square"/>
<line x1="0.0" y1="1000.0" x2="0.0" y2="3200.0" stroke="white" stroke-width="20" stroke-linecap="square"/>
<rect x="2400.0" y="4600.0" width="1100.0" height="1900.0" fill="#faf7f0" stroke="#9a9a9a" stroke-width="20" rx="0" opacity="1"/>
<line x1="2400.0" y1="4790.0" x2="3500.0" y2="4790.0" stroke="#b3a892" stroke-width="22" stroke-linecap="square"/>
<line x1="2400.0" y1="4980.0" x2="3500.0" y2="4980.0" stroke="#b3a892" stroke-width="22" stroke-linecap="square"/>
<line x1="2400.0" y1="5170.0" x2="3500.0" y2="5170.0" stroke="#b3a892" stroke-width="22" stroke-linecap="square"/>
<line x1="2400.0" y1="5360.0" x2="3500.0" y2="5360.0" stroke="#b3a892" stroke-width="22" stroke-linecap="square"/>
<line x1="2400.0" y1="5550.0" x2="3500.0" y2="5550.0" stroke="#b3a892" stroke-width="22" stroke-linecap="square"/>
<line x1="2400.0" y1="5740.0" x2="3500.0" y2="5740.0" stroke="#b3a892" stroke-width="22" stroke-linecap="square"/>
<line x1="2400.0" y1="5930.0" x2="3500.0" y2="5930.0" stroke="#b3a892" stroke-width="22" stroke-linecap="square"/>
<line x1="2400.0" y1="6120.0" x2="3500.0" y2="6120.0" stroke="#b3a892" stroke-width="22" stroke-linecap="square"/>
<line x1="2400.0" y1="6310.0" x2="3500.0" y2="6310.0" stroke="#b3a892" stroke-width="22" stroke-linecap="square"/>
<line x1="2950.0" y1="6440.0" x2="2950.0" y2="4680.0" stroke="#c0532b" stroke-width="30" stroke-linecap="square"/>
<polygon points="2870.0,4800.0 3030.0,4800.0 2950.0,4660.0" fill="#c0532b" stroke="none" stroke-width="0" stroke-linejoin="round" opacity="1"/>
<text x="2950.0" y="6370.0" font-family="Helvetica, Arial, sans-serif" font-size="130" fill="#6b6256" text-anchor="middle" font-weight="400" font-style="normal"></text>
<text x="2950.0" y="4350.0" font-family="Helvetica, Arial, sans-serif" font-size="150" fill="#777" text-anchor="middle" font-weight="400" font-style="normal">overloop</text>
<line x1="2300.0" y1="600.0" x2="2300.0" y2="1400.0" stroke="white" stroke-width="140" stroke-linecap="square"/>
<path d="M 2300 600 A 800 800 0 0 1 3100 1400" fill="none" stroke="#9a9a9a" stroke-width="18"/>
<line x1="2300.0" y1="600.0" x2="3100.0" y2="600.0" stroke="#9a9a9a" stroke-width="22" stroke-linecap="square"/>
<line x1="3000.0" y1="700.0" x2="3000.0" y2="1500.0" stroke="white" stroke-width="140" stroke-linecap="square"/>
<path d="M 3000 700 A 800 800 0 0 1 3800 1500" fill="none" stroke="#9a9a9a" stroke-width="18"/>
<line x1="3000.0" y1="700.0" x2="3800.0" y2="700.0" stroke="#9a9a9a" stroke-width="22" stroke-linecap="square"/>
<line x1="2300.0" y1="4800.0" x2="3050.0" y2="4800.0" stroke="white" stroke-width="140" stroke-linecap="square"/>
<path d="M 2300 4800 A 750 750 0 0 1 3050 5550" fill="none" stroke="#9a9a9a" stroke-width="18"/>
<line x1="2300.0" y1="4800.0" x2="2300.0" y2="5550.0" stroke="#9a9a9a" stroke-width="22" stroke-linecap="square"/>
<line x1="2600.0" y1="6600.0" x2="2600.0" y2="7450.0" stroke="white" stroke-width="140" stroke-linecap="square"/>
<path d="M 2600 6600 A 850 850 0 0 1 3450 7450" fill="none" stroke="#9a9a9a" stroke-width="18"/>
<line x1="2600.0" y1="6600.0" x2="3450.0" y2="6600.0" stroke="#9a9a9a" stroke-width="22" stroke-linecap="square"/>
<text x="1600.0" y="2350.0" font-family="Helvetica, Arial, sans-serif" font-size="200" fill="#1b1b1b" text-anchor="middle" font-weight="700" font-style="normal">slaapkamer 2</text>
<text x="1600.0" y="2650.0" font-family="Helvetica, Arial, sans-serif" font-size="140" fill="#777" text-anchor="middle" font-weight="400" font-style="normal">± 12 m²</text>
<text x="4100.0" y="2350.0" font-family="Helvetica, Arial, sans-serif" font-size="190" fill="#1b1b1b" text-anchor="middle" font-weight="700" font-style="normal">slaapkamer 3</text>
<text x="4100.0" y="2650.0" font-family="Helvetica, Arial, sans-serif" font-size="140" fill="#777" text-anchor="middle" font-weight="400" font-style="normal">± 9 m²</text>
<text x="1250.0" y="5550.0" font-family="Helvetica, Arial, sans-serif" font-size="180" fill="#1b1b1b" text-anchor="middle" font-weight="700" font-style="normal">badkamer</text>
<text x="2700.0" y="8000.0" font-family="Helvetica, Arial, sans-serif" font-size="230" fill="#1b1b1b" text-anchor="middle" font-weight="700" font-style="normal">slaapkamer 1</text>
<text x="2700.0" y="8300.0" font-family="Helvetica, Arial, sans-serif" font-size="150" fill="#777" text-anchor="middle" font-weight="400" font-style="normal">± 15 m²</text>
<line x1="0.0" y1="-1500.0" x2="5400.0" y2="-1500.0" stroke="#7a6f5f" stroke-width="18" stroke-linecap="square"/>
<text x="2700.0" y="-1560.0" font-family="Helvetica, Arial, sans-serif" font-size="150" fill="#7a6f5f" text-anchor="middle" font-weight="400" font-style="normal">≈ 5,40 m</text>
<line x1="-40.0" y1="-1540.0" x2="40.0" y2="-1460.0" stroke="#7a6f5f" stroke-width="14" stroke-linecap="square"/>
<line x1="5360.0" y1="-1540.0" x2="5440.0" y2="-1460.0" stroke="#7a6f5f" stroke-width="14" stroke-linecap="square"/>
<line x1="6100.0" y1="0.0" x2="6100.0" y2="9400.0" stroke="#7a6f5f" stroke-width="18" stroke-linecap="square"/>
<text x="6100.0" y="4640.0" font-family="Helvetica, Arial, sans-serif" font-size="150" fill="#7a6f5f" text-anchor="middle" font-weight="400" font-style="normal" transform="rotate(-90 6100.0 4640.0)">≈ 9,40 m</text>
<line x1="6060.0" y1="-40.0" x2="6140.0" y2="40.0" stroke="#7a6f5f" stroke-width="14" stroke-linecap="square"/>
<line x1="6060.0" y1="9360.0" x2="6140.0" y2="9440.0" stroke="#7a6f5f" stroke-width="14" stroke-linecap="square"/>
<text x="6700.0" y="4700.0" font-family="Helvetica, Arial, sans-serif" font-size="140" fill="#7a6f5f" text-anchor="middle" font-weight="400" font-style="normal" transform="rotate(-90 6700.0 4700.0)">vloer +2,70  /  plafond +5,40</text>
<circle cx="7600.0" cy="-1400.0" r="320.0" fill="white" stroke="#1b1b1b" stroke-width="18"/>
<polygon points="7600.0,-1649.6 7491.2,-1272.0 7600.0,-1361.6 7708.8,-1272.0" fill="#1b1b1b" stroke="none" stroke-width="0" stroke-linejoin="round" opacity="1"/>
<text x="7600.0" y="-1780.0" font-family="Helvetica, Arial, sans-serif" font-size="210" fill="#1b1b1b" text-anchor="middle" font-weight="700" font-style="normal">N</text>
<rect x="0.0" y="9900.0" width="1000.0" height="120.0" fill="#1b1b1b" stroke="#1b1b1b" stroke-width="12" rx="0" opacity="1"/>
<rect x="1000.0" y="9900.0" width="1000.0" height="120.0" fill="white" stroke="#1b1b1b" stroke-width="12" rx="0" opacity="1"/>
<rect x="2000.0" y="9900.0" width="1000.0" height="120.0" fill="#1b1b1b" stroke="#1b1b1b" stroke-width="12" rx="0" opacity="1"/>
<rect x="3000.0" y="9900.0" width="1000.0" height="120.0" fill="white" stroke="#1b1b1b" stroke-width="12" rx="0" opacity="1"/>
<rect x="4000.0" y="9900.0" width="1000.0" height="120.0" fill="#1b1b1b" stroke="#1b1b1b" stroke-width="12" rx="0" opacity="1"/>
<text x="0.0" y="9840.0" font-family="Helvetica, Arial, sans-serif" font-size="120" fill="#1b1b1b" text-anchor="middle" font-weight="400" font-style="normal">0</text>
<text x="5000.0" y="9840.0" font-family="Helvetica, Arial, sans-serif" font-size="120" fill="#1b1b1b" text-anchor="middle" font-weight="400" font-style="normal">5 m</text>
<rect x="-1400.0" y="10900.0" width="8800.0" height="900.0" fill="white" stroke="#1b1b1b" stroke-width="18" rx="0" opacity="1"/>
<line x1="-1400.0" y1="11200.0" x2="7400.0" y2="11200.0" stroke="#1b1b1b" stroke-width="12" stroke-linecap="square"/>
<line x1="-1400.0" y1="11460.0" x2="7400.0" y2="11460.0" stroke="#1b1b1b" stroke-width="12" stroke-linecap="square"/>
<text x="-1280.0" y="11100.0" font-family="Helvetica, Arial, sans-serif" font-size="185" fill="#1b1b1b" text-anchor="start" font-weight="700" font-style="normal">Kruidenschans 24, Voorhout</text>
<text x="-1280.0" y="11360.0" font-family="Helvetica, Arial, sans-serif" font-size="240" fill="#c0532b" text-anchor="start" font-weight="700" font-style="normal">Verdieping (1e)</text>
<text x="-1280.0" y="11620.0" font-family="Helvetica, Arial, sans-serif" font-size="140" fill="#555" text-anchor="start" font-weight="400" font-style="normal">woningtype M4 – plan Oosthout B1 – herget. uit bestektek. 1986</text>
<text x="7280.0" y="11620.0" font-family="Helvetica, Arial, sans-serif" font-size="140" fill="#555" text-anchor="end" font-weight="400" font-style="normal">schaal 1:100 (indicatief)</text>
<text x="7280.0" y="11100.0" font-family="Helvetica, Arial, sans-serif" font-size="170" fill="#1b1b1b" text-anchor="end" font-weight="700" font-style="normal">blad 3 / 5</text></svg>